<?xml version="1.0" encoding="utf-8"?>
<!-- Generator: Adobe Illustrator 19.0.0, SVG Export Plug-In . SVG Version: 6.00 Build 0)  -->
<svg version="1.1" id="Layer_1" xmlns="http://www.w3.org/2000/svg" xmlns:xlink="http://www.w3.org/1999/xlink" x="0px" y="0px"
	 viewBox="0 0 512 512" style="enable-background:new 0 0 512 512;" xml:space="preserve">
<style type="text/css">
	.st0{fill:none;}
	.st1{fill:#333333;}
	.st2{fill:url(#New_Pattern);}
</style>
<pattern  width="512" height="512" patternUnits="userSpaceOnUse" id="New_Pattern" viewBox="0 -512 512 512" style="overflow:visible;">
	<g id="XMLID_84_">
		<polygon id="XMLID_585_" class="st0" points="0,-512 512,-512 512,0 0,0 		"/>
		<g id="XMLID_569_">
			<polygon id="XMLID_584_" class="st1" points="65.2,-354.6 65.2,-354.6 65.2,-354.6 			"/>
			<polygon id="XMLID_583_" class="st1" points="91.9,-339.2 91.9,-339.2 91.9,-339.2 			"/>
			<polygon id="XMLID_582_" class="st1" points="49.7,-381.4 49.7,-381.4 49.7,-381.4 			"/>
			<polygon id="XMLID_581_" class="st1" points="165,-381.4 165,-381.4 165,-381.4 			"/>
			<polygon id="XMLID_580_" class="st1" points="122.8,-339.2 122.8,-339.2 122.8,-339.2 			"/>
			<polygon id="XMLID_579_" class="st1" points="149.6,-354.6 149.6,-354.6 149.6,-354.6 			"/>
			<polygon id="XMLID_578_" class="st1" points="49.7,-412.3 49.7,-412.3 49.7,-412.3 			"/>
			<polygon id="XMLID_577_" class="st1" points="165,-412.3 165,-412.3 165,-412.3 			"/>
			<path id="XMLID_574_" class="st1" d="M177.3-406.4v19.1l-0.7,0.1l-0.7,0.1l-0.7,0.1l-0.7,0l-0.7,0l-7.5-1.1l-1.4,6.8l-2.2,6.6
				l7.1,2.8l0.6,0.3l0.6,0.3l0.6,0.4l0.5,0.4l0.5,0.4l-9.6,16.6l-0.6-0.2l-0.6-0.3l-0.6-0.3l-0.6-0.3l-0.6-0.4l-6-4.7l-4.6,5.2
				l-5.2,4.6l4.7,6l0.4,0.6l0.3,0.6l0.3,0.6l0.3,0.6l0.2,0.6l-16.6,9.6l-0.4-0.5l-0.4-0.5l-0.4-0.6l-0.3-0.6l-0.3-0.6l-2.8-7.1
				l-6.6,2.2l-6.8,1.4l1.1,7.5l0,0.7l0,0.7l-0.1,0.7l-0.1,0.7l-0.1,0.7H97.8l-0.1-0.7l-0.1-0.7l-0.1-0.7l0-0.7l0-0.7l1.1-7.5
				l-6.8-1.4l-6.6-2.2l-2.8,7.1l-0.3,0.6l-0.3,0.6l-0.4,0.6l-0.4,0.5l-0.4,0.5l-16.6-9.6l0.2-0.6l0.3-0.6l0.3-0.6l0.3-0.6l0.4-0.6
				l4.7-6l-5.2-4.6l-4.6-5.2l-6,4.7l-0.6,0.4l-0.6,0.3l-0.6,0.3l-0.6,0.3l-0.6,0.2L42-370.2l0.5-0.4l0.5-0.4l0.6-0.4l0.6-0.3
				l0.6-0.3l7.1-2.8l-2.2-6.6l-1.4-6.8l-7.5,1.1l-0.7,0l-0.7,0l-0.7-0.1l-0.7-0.1l-0.7-0.1v-19.1l0.7-0.1l0.7-0.1l0.7-0.1l0.7,0
				l0.7,0l7.5,1.1l1.4-6.8l2.2-6.6l-7.1-2.8l-0.6-0.3l-0.6-0.3l-0.6-0.4l-0.5-0.4l-0.5-0.4l9.6-16.6l0.6,0.2l0.6,0.3l0.6,0.3
				l0.6,0.3l0.6,0.4l6,4.7l4.6-5.2l5.2-4.6l-4.7-6l-0.4-0.6l-0.3-0.6l-0.3-0.6l-0.3-0.6l-0.2-0.6l16.6-9.6l0.4,0.5l0.4,0.5l0.4,0.6
				l0.3,0.6l0.3,0.6l2.8,7.1l6.6-2.2l6.8-1.4l-1.1-7.5l0-0.7l0-0.7l0.1-0.7l0.1-0.7l0.1-0.7h19.1l0.1,0.7l0.1,0.7l0.1,0.7l0,0.7
				l0,0.7l-1.1,7.5l6.8,1.4l6.6,2.2l2.8-7.1l0.3-0.6l0.3-0.6l0.4-0.6l0.4-0.5l0.4-0.5l16.6,9.6l-0.2,0.6l-0.3,0.6l-0.3,0.6l-0.3,0.6
				l-0.4,0.6l-4.7,6l5.2,4.6l4.6,5.2l6-4.7l0.6-0.4l0.6-0.3l0.6-0.3l0.6-0.3l0.6-0.2l9.6,16.6l-0.5,0.4l-0.5,0.4l-0.6,0.4l-0.6,0.3
				l-0.6,0.3l-7.1,2.8l2.2,6.6l1.4,6.8l7.5-1.1l0.7,0l0.7,0l0.7,0.1l0.7,0.1L177.3-406.4z M143.6-396.8c0-20-16.2-36.3-36.3-36.3
				s-36.3,16.2-36.3,36.3s16.2,36.3,36.3,36.3S143.6-376.8,143.6-396.8z"/>
			<polygon id="XMLID_573_" class="st1" points="149.6,-439 149.6,-439 149.6,-439 			"/>
			<polygon id="XMLID_572_" class="st1" points="65.2,-439 65.2,-439 65.2,-439 			"/>
			<polygon id="XMLID_571_" class="st1" points="91.9,-454.5 91.9,-454.5 91.9,-454.5 			"/>
			<polygon id="XMLID_570_" class="st1" points="122.8,-454.5 122.8,-454.5 122.8,-454.5 			"/>
		</g>
		<g id="XMLID_553_">
			<polygon id="XMLID_568_" class="st1" points="406.1,-390.2 406.1,-390.2 406.1,-390.2 			"/>
			<polygon id="XMLID_567_" class="st1" points="391.9,-414.8 391.9,-414.8 391.9,-414.8 			"/>
			<polygon id="XMLID_566_" class="st1" points="430.7,-375.9 430.7,-375.9 430.7,-375.9 			"/>
			<polygon id="XMLID_565_" class="st1" points="391.9,-443.2 391.9,-443.2 391.9,-443.2 			"/>
			<polygon id="XMLID_564_" class="st1" points="498,-414.8 498,-414.8 498,-414.8 			"/>
			<polygon id="XMLID_563_" class="st1" points="459.2,-375.9 459.2,-375.9 459.2,-375.9 			"/>
			<polygon id="XMLID_562_" class="st1" points="483.8,-390.2 483.8,-390.2 483.8,-390.2 			"/>
			<polygon id="XMLID_561_" class="st1" points="498,-443.2 498,-443.2 498,-443.2 			"/>
			<polygon id="XMLID_560_" class="st1" points="483.8,-467.9 483.8,-467.9 483.8,-467.9 			"/>
			<polygon id="XMLID_559_" class="st1" points="406.1,-467.9 406.1,-467.9 406.1,-467.9 			"/>
			<path id="XMLID_556_" class="st1" d="M509.3-437.8v17.6l-0.6,0.1l-0.6,0.1l-0.6,0l-0.6,0l-0.6,0l-6.9-1l-1.3,6.2l-2,6l6.5,2.6
				l0.5,0.3l0.5,0.3l0.5,0.3l0.5,0.4l0.5,0.4l-8.8,15.2l-0.6-0.2l-0.6-0.2l-0.6-0.3l-0.5-0.3l-0.5-0.3l-5.5-4.4l-4.2,4.8l-4.8,4.2
				l4.4,5.5l0.3,0.5l0.3,0.5l0.3,0.6l0.2,0.6l0.2,0.6l-15.2,8.8l-0.4-0.5l-0.4-0.5l-0.3-0.5l-0.3-0.5l-0.3-0.5l-2.6-6.5l-6,2
				l-6.2,1.3l1,6.9l0,0.6l0,0.6l0,0.6l-0.1,0.6l-0.1,0.6h-17.6l-0.1-0.6l-0.1-0.6l0-0.6l0-0.6l0-0.6l1-6.9l-6.2-1.3l-6-2l-2.6,6.5
				l-0.3,0.5l-0.3,0.5l-0.3,0.5l-0.4,0.5l-0.4,0.5l-15.2-8.8l0.2-0.6l0.2-0.6l0.3-0.6l0.3-0.5l0.3-0.5l4.4-5.5l-4.8-4.2l-4.2-4.8
				l-5.5,4.4l-0.5,0.3l-0.5,0.3l-0.6,0.3l-0.6,0.2l-0.6,0.2l-8.8-15.2l0.5-0.4l0.5-0.4l0.5-0.3l0.5-0.3l0.5-0.3l6.5-2.6l-2-6
				l-1.3-6.2l-6.9,1l-0.6,0l-0.6,0l-0.6,0l-0.6-0.1l-0.6-0.1v-17.6l0.6-0.1l0.6-0.1l0.6,0l0.6,0l0.6,0l6.9,1l1.3-6.2l2-6l-6.5-2.6
				l-0.5-0.3l-0.5-0.3l-0.5-0.3l-0.5-0.4l-0.5-0.4l8.8-15.2l0.6,0.2l0.6,0.2l0.6,0.3l0.5,0.3l0.5,0.3l5.5,4.4l4.2-4.8l4.8-4.2
				l-4.4-5.5l-0.3-0.5l-0.3-0.5l-0.3-0.6l-0.2-0.6l-0.2-0.6l15.2-8.8l0.4,0.5l0.4,0.5l0.3,0.5l0.3,0.5l0.3,0.5l2.6,6.5l6-2l6.2-1.3
				l-1-6.9l0-0.6l0-0.6l0-0.6l0.1-0.6l0.1-0.6h17.6l0.1,0.6l0.1,0.6l0,0.6l0,0.6l0,0.6l-1,6.9l6.2,1.3l6,2l2.6-6.5l0.3-0.5l0.3-0.5
				l0.3-0.5l0.4-0.5l0.4-0.5l15.2,8.8l-0.2,0.6l-0.2,0.6l-0.3,0.6l-0.3,0.5l-0.3,0.5l-4.4,5.5l4.8,4.2l4.2,4.8l5.5-4.4l0.5-0.3
				l0.5-0.3l0.6-0.3l0.6-0.2l0.6-0.2l8.8,15.2l-0.5,0.4l-0.5,0.4l-0.5,0.3l-0.5,0.3l-0.5,0.3l-6.5,2.6l2,6l1.3,6.2l6.9-1l0.6,0
				l0.6,0l0.6,0l0.6,0.1L509.3-437.8z M478.3-429c0-18.4-14.9-33.4-33.4-33.4c-18.4,0-33.4,14.9-33.4,33.4
				c0,18.4,14.9,33.4,33.4,33.4C463.4-395.6,478.3-410.6,478.3-429z"/>
			<polygon id="XMLID_555_" class="st1" points="430.7,-482.1 430.7,-482.1 430.7,-482.1 			"/>
			<polygon id="XMLID_554_" class="st1" points="459.2,-482.1 459.2,-482.1 459.2,-482.1 			"/>
		</g>
		<g id="XMLID_537_">
			<polygon id="XMLID_552_" class="st1" points="136.9,-57 136.9,-57 136.9,-57 			"/>
			<polygon id="XMLID_551_" class="st1" points="170.3,-37.7 170.3,-37.7 170.3,-37.7 			"/>
			<polygon id="XMLID_550_" class="st1" points="117.7,-128.9 117.7,-128.9 117.7,-128.9 			"/>
			<polygon id="XMLID_549_" class="st1" points="117.7,-90.4 117.7,-90.4 117.7,-90.4 			"/>
			<polygon id="XMLID_548_" class="st1" points="261.4,-90.4 261.4,-90.4 261.4,-90.4 			"/>
			<polygon id="XMLID_547_" class="st1" points="208.8,-37.7 208.8,-37.7 208.8,-37.7 			"/>
			<polygon id="XMLID_546_" class="st1" points="242.2,-57 242.2,-57 242.2,-57 			"/>
			<polygon id="XMLID_545_" class="st1" points="136.9,-162.2 136.9,-162.2 136.9,-162.2 			"/>
			<path id="XMLID_542_" class="st1" d="M276.7-121.5v23.8l-0.8,0.1l-0.8,0.1l-0.8,0.1l-0.8,0l-0.8,0l-9.4-1.4l-1.7,8.4l-2.7,8.2
				l8.8,3.5l0.7,0.4l0.7,0.4l0.7,0.5l0.7,0.5l0.7,0.5l-11.9,20.7l-0.8-0.3l-0.8-0.3l-0.8-0.4l-0.7-0.4l-0.7-0.4l-7.4-5.9l-5.7,6.4
				l-6.4,5.7l5.9,7.4l0.4,0.7l0.4,0.7l0.4,0.8l0.3,0.8l0.3,0.8l-20.7,11.9l-0.5-0.7l-0.5-0.7l-0.5-0.7l-0.4-0.7l-0.4-0.7l-3.5-8.8
				l-8.2,2.7l-8.4,1.7l1.4,9.4l0,0.8l0,0.8l-0.1,0.8l-0.1,0.8l-0.1,0.8h-23.8l-0.1-0.8l-0.1-0.8l-0.1-0.8l0-0.8l0-0.8l1.4-9.4
				l-8.4-1.7l-8.2-2.7l-3.5,8.8l-0.4,0.7l-0.4,0.7l-0.5,0.7l-0.5,0.7l-0.5,0.7l-20.7-11.9l0.3-0.8l0.3-0.8l0.4-0.8l0.4-0.7l0.4-0.7
				l5.9-7.4l-6.4-5.7l-5.7-6.4l-7.4,5.9l-0.7,0.4l-0.7,0.4l-0.8,0.4l-0.8,0.3l-0.8,0.3l-11.9-20.7l0.7-0.5l0.7-0.5l0.7-0.5l0.7-0.4
				l0.7-0.4l8.8-3.5l-2.7-8.2l-1.7-8.5l-9.4,1.4l-0.8,0l-0.8,0l-0.8-0.1l-0.8-0.1l-0.8-0.1v-23.8l0.8-0.1l0.8-0.1l0.8-0.1l0.8,0
				l0.8,0l9.4,1.4l1.7-8.5l2.7-8.2l-8.8-3.5l-0.7-0.4l-0.7-0.4l-0.7-0.5l-0.7-0.5l-0.7-0.5l11.9-20.7l0.8,0.3l0.8,0.3l0.8,0.4
				l0.7,0.4l0.7,0.4l7.4,5.9l5.7-6.4l6.4-5.7l-5.9-7.4l-0.4-0.7l-0.4-0.7l-0.4-0.8l-0.3-0.8l-0.3-0.8l20.7-11.9l0.5,0.7l0.5,0.7
				l0.5,0.7l0.4,0.7l0.4,0.7l3.5,8.8l8.2-2.7l8.4-1.7l-1.4-9.4l0-0.8l0-0.8l0.1-0.8l0.1-0.8l0.1-0.8h23.8l0.1,0.8l0.1,0.8l0.1,0.8
				l0,0.8l0,0.8l-1.4,9.4l8.4,1.7l8.2,2.7l3.5-8.8l0.4-0.7l0.4-0.7l0.5-0.7l0.5-0.7l0.5-0.7l20.7,11.9l-0.3,0.8l-0.3,0.8l-0.4,0.8
				l-0.4,0.7l-0.4,0.7l-5.9,7.4l6.4,5.7l5.7,6.4l7.4-5.9l0.7-0.4l0.7-0.4l0.8-0.4l0.8-0.3l0.8-0.3l11.9,20.7l-0.7,0.5l-0.7,0.5
				l-0.7,0.5l-0.7,0.4l-0.7,0.4l-8.8,3.5l2.7,8.2l1.7,8.4l9.4-1.4l0.8,0l0.8,0l0.8,0.1l0.8,0.1L276.7-121.5z M234.8-109.6
				c0-25-20.2-45.2-45.2-45.2s-45.2,20.2-45.2,45.2c0,25,20.2,45.2,45.2,45.2S234.8-84.6,234.8-109.6z"/>
			<polygon id="XMLID_541_" class="st1" points="261.4,-128.9 261.4,-128.9 261.4,-128.9 			"/>
			<polygon id="XMLID_540_" class="st1" points="242.2,-162.2 242.2,-162.2 242.2,-162.2 			"/>
			<polygon id="XMLID_539_" class="st1" points="208.8,-181.5 208.8,-181.5 208.8,-181.5 			"/>
			<polygon id="XMLID_538_" class="st1" points="170.3,-181.5 170.3,-181.5 170.3,-181.5 			"/>
		</g>
		<g id="XMLID_521_">
			<polygon id="XMLID_536_" class="st1" points="224.3,-447.7 224.3,-447.7 224.3,-447.7 			"/>
			<polygon id="XMLID_535_" class="st1" points="231.1,-435.9 231.1,-435.9 231.1,-435.9 			"/>
			<polygon id="XMLID_534_" class="st1" points="242.9,-429.1 242.9,-429.1 242.9,-429.1 			"/>
			<polygon id="XMLID_533_" class="st1" points="275,-447.7 275,-447.7 275,-447.7 			"/>
			<polygon id="XMLID_532_" class="st1" points="268.2,-435.9 268.2,-435.9 268.2,-435.9 			"/>
			<polygon id="XMLID_531_" class="st1" points="256.5,-429.1 256.5,-429.1 256.5,-429.1 			"/>
			<polygon id="XMLID_530_" class="st1" points="224.3,-461.3 224.3,-461.3 224.3,-461.3 			"/>
			<polygon id="XMLID_529_" class="st1" points="231.1,-473.1 231.1,-473.1 231.1,-473.1 			"/>
			<polygon id="XMLID_528_" class="st1" points="275,-461.3 275,-461.3 275,-461.3 			"/>
			<path id="XMLID_525_" class="st1" d="M280.5-458.7v8.4l-0.3,0l-0.3,0l-0.3,0l-0.3,0l-0.3,0l-3.3-0.5l-0.6,3l-1,2.9l3.1,1.2
				l0.3,0.1l0.2,0.2l0.2,0.2l0.2,0.2l0.2,0.2l-4.2,7.3l-0.3-0.1l-0.3-0.1l-0.3-0.1l-0.3-0.1l-0.2-0.2l-2.6-2.1l-2,2.3l-2.3,2
				l2.1,2.6l0.2,0.2l0.1,0.3l0.1,0.3l0.1,0.3l0.1,0.3l-7.3,4.2l-0.2-0.2l-0.2-0.2l-0.2-0.2l-0.2-0.2l-0.1-0.3l-1.2-3.1l-2.9,1
				l-3,0.6l0.5,3.3l0,0.3l0,0.3l0,0.3l0,0.3l0,0.3h-8.4l0-0.3l0-0.3l0-0.3l0-0.3l0-0.3l0.5-3.3l-3-0.6l-2.9-1l-1.2,3.1l-0.1,0.3
				l-0.2,0.2l-0.2,0.2l-0.2,0.2l-0.2,0.2l-7.3-4.2l0.1-0.3l0.1-0.3l0.1-0.3l0.1-0.3l0.2-0.2l2.1-2.6l-2.3-2l-2-2.3l-2.6,2.1
				l-0.2,0.2l-0.3,0.1l-0.3,0.1l-0.3,0.1l-0.3,0.1l-4.2-7.3l0.2-0.2l0.2-0.2l0.2-0.2l0.2-0.2l0.3-0.1l3.1-1.2l-1-2.9l-0.6-3
				l-3.3,0.5l-0.3,0l-0.3,0l-0.3,0l-0.3,0l-0.3,0v-8.4l0.3,0l0.3,0l0.3,0l0.3,0l0.3,0l3.3,0.5l0.6-3l1-2.9l-3.1-1.2l-0.3-0.1
				l-0.2-0.2l-0.2-0.2l-0.2-0.2l-0.2-0.2l4.2-7.3l0.3,0.1l0.3,0.1l0.3,0.1l0.3,0.1l0.2,0.2l2.6,2.1l2-2.3l2.3-2l-2.1-2.6l-0.2-0.2
				l-0.1-0.3l-0.1-0.3l-0.1-0.3l-0.1-0.3l7.3-4.2l0.2,0.2l0.2,0.2l0.2,0.2l0.2,0.2l0.1,0.3l1.2,3.1l2.9-1l3-0.6l-0.5-3.3l0-0.3
				l0-0.3l0-0.3l0-0.3l0-0.3h8.4l0,0.3l0,0.3l0,0.3l0,0.3l0,0.3l-0.5,3.3l3,0.6l2.9,1l1.2-3.1l0.1-0.3l0.2-0.2l0.2-0.2l0.2-0.2
				l0.2-0.2l7.3,4.2l-0.1,0.3l-0.1,0.3l-0.1,0.3l-0.1,0.3l-0.2,0.2l-2.1,2.6l2.3,2l2,2.3l2.6-2.1l0.2-0.2l0.3-0.1l0.3-0.1l0.3-0.1
				l0.3-0.1l4.2,7.3l-0.2,0.2l-0.2,0.2l-0.2,0.2l-0.2,0.2l-0.3,0.1l-3.1,1.2l1,2.9l0.6,3l3.3-0.5l0.3,0l0.3,0l0.3,0l0.3,0
				L280.5-458.7z M265.6-454.5c0-8.8-7.1-16-16-16c-8.8,0-16,7.1-16,16s7.1,16,16,16C258.5-438.5,265.6-445.7,265.6-454.5z"/>
			<polygon id="XMLID_524_" class="st1" points="268.2,-473.1 268.2,-473.1 268.2,-473.1 			"/>
			<polygon id="XMLID_523_" class="st1" points="256.5,-479.9 256.5,-479.9 256.5,-479.9 			"/>
			<polygon id="XMLID_522_" class="st1" points="242.9,-479.9 242.9,-479.9 242.9,-479.9 			"/>
		</g>
		<g id="XMLID_441_">
			<polygon id="XMLID_520_" class="st1" points="301.1,-25.1 301.1,-25.1 301.1,-25.1 			"/>
			<polygon id="XMLID_519_" class="st1" points="290.3,-65.4 290.3,-65.4 290.3,-65.4 			"/>
			<polygon id="XMLID_518_" class="st1" points="290.3,-43.8 290.3,-43.8 290.3,-43.8 			"/>
			<polygon id="XMLID_517_" class="st1" points="319.8,-14.3 319.8,-14.3 319.8,-14.3 			"/>
			<polygon id="XMLID_516_" class="st1" points="341.5,-14.3 341.5,-14.3 341.5,-14.3 			"/>
			<polygon id="XMLID_515_" class="st1" points="371,-43.8 371,-43.8 371,-43.8 			"/>
			<polygon id="XMLID_514_" class="st1" points="360.2,-25.1 360.2,-25.1 360.2,-25.1 			"/>
			<path id="XMLID_447_" class="st1" d="M379.6-61.3v13.4l-0.5,0.1l-0.5,0.1l-0.5,0l-0.5,0l-0.5,0l-5.3-0.8l-1,4.7l-1.5,4.6l5,2
				l0.4,0.2l0.4,0.2l0.4,0.3l0.4,0.3l0.4,0.3l-6.7,11.6l-0.4-0.2l-0.4-0.2l-0.4-0.2l-0.4-0.2l-0.4-0.3l-4.2-3.3l-3.2,3.6l-3.6,3.2
				l3.3,4.2l0.3,0.4l0.2,0.4l0.2,0.4l0.2,0.4l0.2,0.4l-11.6,6.7L349-9.3l-0.3-0.4l-0.3-0.4l-0.2-0.4l-0.2-0.4l-2-5l-4.6,1.5l-4.7,1
				l0.8,5.3l0,0.5l0,0.5l0,0.5l-0.1,0.5l-0.1,0.5h-13.4l-0.1-0.5l-0.1-0.5l0-0.5l0-0.5l0-0.5l0.8-5.3l-4.7-1l-4.6-1.5l-2,5l-0.2,0.4
				l-0.2,0.4l-0.3,0.4l-0.3,0.4L312-8.9l-11.6-6.7l0.2-0.4l0.2-0.4l0.2-0.4l0.2-0.4l0.3-0.4l3.3-4.2l-3.6-3.2l-3.2-3.6l-4.2,3.3
				l-0.4,0.3l-0.4,0.2l-0.4,0.2l-0.4,0.2l-0.4,0.2l-6.7-11.6l0.4-0.3l0.4-0.3l0.4-0.3l0.4-0.2l0.4-0.2l5-2l-1.5-4.6l-1-4.7l-5.3,0.8
				l-0.5,0l-0.5,0l-0.5,0l-0.5-0.1l-0.5-0.1v-13.4l0.5-0.1l0.5-0.1l0.5,0l0.5,0l0.5,0l5.3,0.8l1-4.7l1.5-4.6l-5-2l-0.4-0.2l-0.4-0.2
				l-0.4-0.3l-0.4-0.3l-0.4-0.3l6.7-11.6l0.4,0.2l0.4,0.2l0.4,0.2l0.4,0.2l0.4,0.3l4.2,3.3l3.2-3.6l3.6-3.2l-3.3-4.2l-0.3-0.4
				l-0.2-0.4l-0.2-0.4l-0.2-0.4l-0.2-0.4l11.6-6.7l0.3,0.4l0.3,0.4l0.3,0.4l0.2,0.4l0.2,0.4l2,5l4.6-1.5l4.7-1l-0.8-5.3l0-0.5l0-0.5
				l0-0.5l0.1-0.5l0.1-0.5h13.4l0.1,0.5l0.1,0.5l0,0.5l0,0.5l0,0.5l-0.8,5.3l4.7,1l4.6,1.5l2-5l0.2-0.4l0.2-0.4l0.3-0.4l0.3-0.4
				l0.3-0.4l11.6,6.7l-0.2,0.4l-0.2,0.4l-0.2,0.4l-0.2,0.4l-0.3,0.4l-3.3,4.2l3.6,3.2l3.2,3.6l4.2-3.3l0.4-0.3l0.4-0.2l0.4-0.2
				l0.4-0.2l0.4-0.2l6.7,11.6L376-73l-0.4,0.3l-0.4,0.3l-0.4,0.2l-0.4,0.2l-5,2l1.5,4.6l1,4.7l5.3-0.8l0.5,0l0.5,0l0.5,0l0.5,0.1
				L379.6-61.3z M356-54.6c0-14-11.4-25.4-25.4-25.4c-14,0-25.4,11.4-25.4,25.4s11.4,25.4,25.4,25.4C344.7-29.2,356-40.6,356-54.6z"
				/>
			<polygon id="XMLID_446_" class="st1" points="301.1,-84.2 301.1,-84.2 301.1,-84.2 			"/>
			<polygon id="XMLID_445_" class="st1" points="360.2,-84.2 360.2,-84.2 360.2,-84.2 			"/>
			<polygon id="XMLID_444_" class="st1" points="371,-65.4 371,-65.4 371,-65.4 			"/>
			<polygon id="XMLID_443_" class="st1" points="341.5,-95 341.5,-95 341.5,-95 			"/>
			<polygon id="XMLID_442_" class="st1" points="319.8,-95 319.8,-95 319.8,-95 			"/>
		</g>
		<g id="XMLID_425_">
			<polygon id="XMLID_440_" class="st1" points="241,-226.5 241,-226.6 241,-226.6 			"/>
			<polygon id="XMLID_439_" class="st1" points="282.5,-202.6 282.5,-202.6 282.5,-202.6 			"/>
			<polygon id="XMLID_438_" class="st1" points="217.1,-268 217.1,-268 217.1,-268 			"/>
			<polygon id="XMLID_437_" class="st1" points="395.8,-268 395.8,-268 395.8,-268 			"/>
			<polygon id="XMLID_436_" class="st1" points="330.4,-202.6 330.4,-202.6 330.4,-202.6 			"/>
			<polygon id="XMLID_435_" class="st1" points="371.9,-226.6 371.9,-226.6 371.9,-226.5 			"/>
			<polygon id="XMLID_434_" class="st1" points="217.1,-315.9 217.1,-315.9 217.1,-315.9 			"/>
			<polygon id="XMLID_433_" class="st1" points="395.8,-315.9 395.8,-315.9 395.8,-315.9 			"/>
			<path id="XMLID_430_" class="st1" d="M414.8-306.8v29.6l-1,0.2l-1,0.1l-1,0.1l-1,0l-1-0.1l-11.7-1.7l-2.2,10.5l-3.4,10.2l11,4.4
				l0.9,0.5l0.9,0.5l0.9,0.6l0.8,0.6l0.8,0.7l-14.8,25.7l-1-0.4l-1-0.4l-0.9-0.5l-0.9-0.5l-0.9-0.6l-9.3-7.3l-7.1,8l-8,7.1l7.3,9.3
				l0.6,0.9l0.5,0.9l0.5,0.9l0.4,1l0.4,1l-25.7,14.8l-0.7-0.8l-0.6-0.8l-0.6-0.9l-0.5-0.9l-0.5-0.9l-4.4-11l-10.2,3.4l-10.5,2.2
				l1.7,11.7l0.1,1l0,1l-0.1,1l-0.1,1l-0.2,1h-29.6l-0.2-1l-0.1-1l-0.1-1l0-1l0.1-1l1.7-11.7l-10.5-2.2l-10.2-3.4l-4.4,11l-0.5,0.9
				l-0.5,0.9l-0.6,0.9l-0.6,0.8l-0.7,0.8l-25.7-14.8l0.4-1l0.4-1l0.5-0.9l0.5-0.9l0.6-0.9l7.3-9.3l-8-7.1l-7.1-8l-9.3,7.3l-0.9,0.6
				l-0.9,0.5l-0.9,0.5l-1,0.4l-1,0.4l-14.8-25.7l0.8-0.7l0.8-0.6l0.9-0.6l0.9-0.5l0.9-0.5l11-4.4l-3.4-10.2l-2.2-10.5l-11.7,1.7
				l-1,0.1l-1,0l-1-0.1l-1-0.1l-1-0.2v-29.6l1-0.2l1-0.1l1-0.1l1,0l1,0.1l11.7,1.7l2.2-10.5l3.4-10.2l-11-4.4l-0.9-0.5l-0.9-0.5
				l-0.9-0.6l-0.8-0.6l-0.8-0.7L220-359l1,0.4l1,0.4l0.9,0.5l0.9,0.5l0.9,0.6l9.3,7.3l7.1-8l8-7.1l-7.3-9.3l-0.6-0.9l-0.5-0.9
				l-0.5-0.9l-0.4-1l-0.4-1l25.7-14.8l0.7,0.8l0.6,0.8l0.6,0.9l0.5,0.9l0.5,0.9l4.4,11l10.2-3.4l10.5-2.2l-1.7-11.7l-0.1-1l0-1
				l0.1-1l0.1-1l0.2-1h29.6l0.2,1l0.1,1l0.1,1l0,1l-0.1,1l-1.7,11.7l10.5,2.2l10.2,3.4l4.4-11l0.5-0.9l0.5-0.9l0.6-0.9l0.6-0.8
				l0.7-0.8l25.7,14.8l-0.4,1l-0.4,1l-0.5,0.9l-0.5,0.9l-0.6,0.9l-7.3,9.3l8,7.1l7.1,8l9.3-7.3l0.9-0.6l0.9-0.5l0.9-0.5l1-0.4l1-0.4
				l14.8,25.7l-0.8,0.7l-0.8,0.6l-0.9,0.6l-0.9,0.5l-0.9,0.5l-11,4.4l3.4,10.2l2.2,10.5l11.7-1.7l1-0.1l1,0l1,0.1l1,0.1L414.8-306.8
				z M362.7-292c0-31-25.2-56.2-56.2-56.2S250.2-323,250.2-292s25.2,56.2,56.2,56.2S362.7-260.9,362.7-292z"/>
			<polygon id="XMLID_429_" class="st1" points="371.9,-357.4 371.9,-357.4 371.9,-357.4 			"/>
			<polygon id="XMLID_428_" class="st1" points="241,-357.4 241,-357.4 241,-357.4 			"/>
			<polygon id="XMLID_427_" class="st1" points="282.5,-381.3 282.5,-381.3 282.5,-381.3 			"/>
			<polygon id="XMLID_426_" class="st1" points="330.4,-381.3 330.4,-381.3 330.4,-381.3 			"/>
		</g>
		<g id="XMLID_409_">
			<polygon id="XMLID_424_" class="st1" points="387.2,-98.3 387.2,-98.3 387.2,-98.3 			"/>
			<polygon id="XMLID_423_" class="st1" points="414.8,-82.4 414.8,-82.4 414.8,-82.4 			"/>
			<polygon id="XMLID_422_" class="st1" points="371.3,-157.7 371.3,-157.7 371.3,-157.7 			"/>
			<polygon id="XMLID_421_" class="st1" points="371.3,-125.8 371.3,-125.8 371.3,-125.8 			"/>
			<polygon id="XMLID_420_" class="st1" points="490.1,-125.8 490.1,-125.8 490.1,-125.8 			"/>
			<polygon id="XMLID_419_" class="st1" points="446.6,-82.4 446.6,-82.4 446.6,-82.4 			"/>
			<polygon id="XMLID_418_" class="st1" points="474.2,-98.3 474.2,-98.3 474.2,-98.3 			"/>
			<polygon id="XMLID_417_" class="st1" points="387.2,-185.2 387.2,-185.2 387.2,-185.2 			"/>
			<path id="XMLID_414_" class="st1" d="M502.8-151.6v19.7l-0.7,0.1l-0.7,0.1l-0.7,0.1l-0.7,0l-0.7,0l-7.8-1.1l-1.4,7l-2.2,6.8
				l7.3,2.9l0.6,0.3l0.6,0.4l0.6,0.4l0.6,0.4l0.5,0.4l-9.9,17.1l-0.7-0.3l-0.6-0.3l-0.6-0.3l-0.6-0.3l-0.6-0.4l-6.2-4.9l-4.7,5.3
				l-5.3,4.7l4.9,6.2l0.4,0.6l0.3,0.6l0.3,0.6l0.3,0.6l0.3,0.7l-17.1,9.9l-0.4-0.5l-0.4-0.6l-0.4-0.6l-0.4-0.6l-0.3-0.6l-2.9-7.3
				l-6.8,2.2l-7,1.4l1.1,7.8l0,0.7l0,0.7l-0.1,0.7l-0.1,0.7l-0.1,0.7h-19.7l-0.1-0.7l-0.1-0.7l-0.1-0.7l0-0.7l0-0.7l1.1-7.8l-7-1.4
				l-6.8-2.2l-2.9,7.3l-0.3,0.6l-0.4,0.6l-0.4,0.6l-0.4,0.6l-0.4,0.5l-17.1-9.9l0.3-0.7l0.3-0.6l0.3-0.6l0.3-0.6l0.4-0.6l4.9-6.2
				l-5.3-4.7l-4.7-5.3l-6.2,4.9l-0.6,0.4l-0.6,0.3l-0.6,0.3l-0.6,0.3l-0.7,0.3l-9.9-17.1l0.5-0.4l0.6-0.4l0.6-0.4l0.6-0.4l0.6-0.3
				l7.3-2.9l-2.2-6.8l-1.4-7l-7.8,1.1l-0.7,0l-0.7,0l-0.7-0.1l-0.7-0.1l-0.7-0.1v-19.7l0.7-0.1l0.7-0.1l0.7-0.1l0.7,0l0.7,0l7.8,1.1
				l1.4-7l2.2-6.8l-7.3-2.9l-0.6-0.3l-0.6-0.4l-0.6-0.4l-0.6-0.4l-0.5-0.4l9.9-17.1l0.7,0.3l0.6,0.3l0.6,0.3l0.6,0.3l0.6,0.4
				l6.2,4.9l4.7-5.3l5.3-4.7l-4.9-6.2l-0.4-0.6l-0.3-0.6l-0.3-0.6l-0.3-0.6l-0.3-0.7l17.1-9.9l0.4,0.5l0.4,0.6l0.4,0.6l0.4,0.6
				l0.3,0.6l2.9,7.3l6.8-2.2l7-1.4l-1.1-7.8l0-0.7l0-0.7l0.1-0.7l0.1-0.7l0.1-0.7h19.7l0.1,0.7l0.1,0.7l0.1,0.7l0,0.7l0,0.7
				l-1.1,7.8l7,1.4l6.8,2.2l2.9-7.3l0.3-0.6l0.4-0.6l0.4-0.6l0.4-0.6l0.4-0.5l17.1,9.9l-0.3,0.7l-0.3,0.6l-0.3,0.6l-0.3,0.6
				l-0.4,0.6l-4.9,6.2l5.3,4.7l4.7,5.3l6.2-4.9l0.6-0.4l0.6-0.3l0.6-0.3l0.6-0.3l0.7-0.3l9.9,17.1l-0.5,0.4l-0.6,0.4l-0.6,0.4
				l-0.6,0.4l-0.6,0.3l-7.3,2.9l2.2,6.8l1.4,7l7.8-1.1l0.7,0l0.7,0l0.7,0.1l0.7,0.1L502.8-151.6z M468.1-141.7
				c0-20.6-16.7-37.4-37.4-37.4c-20.6,0-37.4,16.7-37.4,37.4c0,20.6,16.7,37.4,37.4,37.4C451.4-104.4,468.1-121.1,468.1-141.7z"/>
			<polygon id="XMLID_413_" class="st1" points="490.1,-157.7 490.1,-157.7 490.1,-157.7 			"/>
			<polygon id="XMLID_412_" class="st1" points="474.2,-185.2 474.2,-185.2 474.2,-185.2 			"/>
			<polygon id="XMLID_411_" class="st1" points="446.6,-201.1 446.6,-201.1 446.6,-201.1 			"/>
			<polygon id="XMLID_410_" class="st1" points="414.8,-201.1 414.8,-201.1 414.8,-201.1 			"/>
		</g>
		<g id="XMLID_393_">
			<polygon id="XMLID_408_" class="st1" points="25,-32.4 25,-32.4 25,-32.4 			"/>
			<polygon id="XMLID_407_" class="st1" points="42.9,-22 42.9,-22 42.9,-22 			"/>
			<polygon id="XMLID_406_" class="st1" points="14.6,-50.3 14.6,-50.3 14.6,-50.3 			"/>
			<polygon id="XMLID_405_" class="st1" points="91.9,-50.3 91.9,-50.3 91.9,-50.3 			"/>
			<polygon id="XMLID_404_" class="st1" points="63.6,-22 63.6,-22 63.6,-22 			"/>
			<polygon id="XMLID_403_" class="st1" points="81.5,-32.4 81.5,-32.4 81.5,-32.4 			"/>
			<polygon id="XMLID_402_" class="st1" points="14.6,-71 14.6,-71 14.6,-71 			"/>
			<polygon id="XMLID_401_" class="st1" points="91.9,-71 91.9,-71 91.9,-71 			"/>
			<path id="XMLID_398_" class="st1" d="M100.1-67.1v12.8l-0.5,0.1l-0.5,0.1l-0.4,0l-0.4,0l-0.4,0l-5-0.7l-0.9,4.5l-1.5,4.4l4.7,1.9
				l0.4,0.2l0.4,0.2l0.4,0.3l0.4,0.3l0.4,0.3l-6.4,11.1l-0.4-0.2L89.8-32l-0.4-0.2L89-32.5l-0.4-0.2l-4-3.2l-3.1,3.5l-3.5,3.1l3.2,4
				l0.2,0.4l0.2,0.4l0.2,0.4l0.2,0.4l0.2,0.4l-11.1,6.4l-0.3-0.4l-0.3-0.4L70.3-18l-0.2-0.4l-0.2-0.4L68-23.5L63.6-22l-4.5,0.9
				l0.7,5l0,0.4l0,0.4l0,0.4l-0.1,0.5l-0.1,0.5H46.8l-0.1-0.5l-0.1-0.5l0-0.4l0-0.4l0-0.4l0.7-5L42.9-22l-4.4-1.5l-1.9,4.7l-0.2,0.4
				L36.2-18l-0.3,0.4l-0.3,0.4l-0.3,0.4l-11.1-6.4l0.2-0.4l0.2-0.4l0.2-0.4l0.2-0.4l0.2-0.4l3.2-4L25-32.4l-3.1-3.5l-4,3.2l-0.4,0.2
				l-0.4,0.2L16.7-32l-0.4,0.2l-0.4,0.2L9.5-42.8l0.4-0.3l0.4-0.3l0.4-0.3l0.4-0.2l0.4-0.2l4.7-1.9l-1.5-4.4l-0.9-4.5l-5,0.7l-0.4,0
				l-0.4,0l-0.4,0l-0.5-0.1l-0.5-0.1v-12.8l0.5-0.1l0.5-0.1l0.4,0l0.4,0l0.4,0l5,0.7l0.9-4.5l1.5-4.4l-4.7-1.9l-0.4-0.2l-0.4-0.2
				L10.2-78l-0.4-0.3l-0.4-0.3l6.4-11.1l0.4,0.2l0.4,0.2l0.4,0.2l0.4,0.2l0.4,0.2l4,3.2l3.1-3.5l3.5-3.1l-3.2-4L25-96.4l-0.2-0.4
				l-0.2-0.4l-0.2-0.4L24.3-98l11.1-6.4l0.3,0.4l0.3,0.4l0.3,0.4l0.2,0.4l0.2,0.4l1.9,4.7l4.4-1.5l4.5-0.9l-0.7-5l0-0.4l0-0.4l0-0.4
				l0.1-0.5l0.1-0.5h12.8l0.1,0.5l0.1,0.5l0,0.4l0,0.4l0,0.4l-0.7,5l4.5,0.9l4.4,1.5l1.9-4.7l0.2-0.4l0.2-0.4l0.3-0.4l0.3-0.4
				l0.3-0.4L82.2-98l-0.2,0.4l-0.2,0.4l-0.2,0.4l-0.2,0.4L81.2-96l-3.2,4l3.5,3.1l3.1,3.5l4-3.2l0.4-0.2l0.4-0.2l0.4-0.2l0.4-0.2
				l0.4-0.2L97-78.5l-0.4,0.3L96.3-78l-0.4,0.3l-0.4,0.2l-0.4,0.2l-4.7,1.9l1.5,4.4l0.9,4.5l5-0.7l0.4,0l0.4,0l0.4,0l0.5,0.1
				L100.1-67.1z M77.5-60.7C77.5-74.1,66.7-85,53.3-85S29-74.1,29-60.7s10.9,24.3,24.3,24.3S77.5-47.3,77.5-60.7z"/>
			<polygon id="XMLID_397_" class="st1" points="81.5,-88.9 81.5,-88.9 81.5,-88.9 			"/>
			<polygon id="XMLID_396_" class="st1" points="25,-88.9 25,-88.9 25,-88.9 			"/>
			<polygon id="XMLID_395_" class="st1" points="42.9,-99.3 42.9,-99.3 42.9,-99.3 			"/>
			<polygon id="XMLID_394_" class="st1" points="63.6,-99.3 63.6,-99.3 63.6,-99.3 			"/>
		</g>
		<g id="XMLID_377_">
			<polygon id="XMLID_392_" class="st1" points="27.9,-199.1 27.9,-199.1 27.9,-199.1 			"/>
			<polygon id="XMLID_391_" class="st1" points="12.3,-257.1 12.3,-257.1 12.3,-257.1 			"/>
			<polygon id="XMLID_390_" class="st1" points="12.3,-226 12.3,-226 12.3,-226 			"/>
			<polygon id="XMLID_389_" class="st1" points="54.8,-183.6 54.8,-183.6 54.8,-183.6 			"/>
			<polygon id="XMLID_388_" class="st1" points="85.9,-183.6 85.9,-183.6 85.9,-183.6 			"/>
			<polygon id="XMLID_387_" class="st1" points="128.3,-226 128.3,-226 128.3,-226 			"/>
			<polygon id="XMLID_386_" class="st1" points="112.8,-199.1 112.8,-199.1 112.8,-199.1 			"/>
			<path id="XMLID_383_" class="st1" d="M140.7-251.2v19.2l-0.7,0.1l-0.7,0.1l-0.7,0.1l-0.7,0l-0.7,0l-7.6-1.1l-1.4,6.8l-2.2,6.6
				l7.1,2.8l0.6,0.3l0.6,0.3l0.6,0.4l0.5,0.4l0.5,0.4l-9.6,16.7l-0.6-0.2l-0.6-0.3l-0.6-0.3l-0.6-0.3l-0.6-0.4l-6-4.8l-4.6,5.2
				l-5.2,4.6l4.8,6l0.4,0.6l0.3,0.6l0.3,0.6l0.3,0.6l0.2,0.6l-16.7,9.6l-0.4-0.5l-0.4-0.5l-0.4-0.6l-0.3-0.6l-0.3-0.6l-2.8-7.1
				l-6.6,2.2l-6.8,1.4l1.1,7.6l0,0.7l0,0.7l-0.1,0.7l-0.1,0.7l-0.1,0.7H60.7l-0.1-0.7l-0.1-0.7l-0.1-0.7l0-0.7l0-0.7l1.1-7.6
				l-6.8-1.4l-6.6-2.2l-2.8,7.1l-0.3,0.6l-0.3,0.6l-0.4,0.6l-0.4,0.5l-0.4,0.5l-16.7-9.6l0.2-0.6l0.3-0.6l0.3-0.6l0.3-0.6l0.4-0.6
				l4.8-6l-5.2-4.6l-4.6-5.2l-6,4.8l-0.6,0.4l-0.6,0.3l-0.6,0.3l-0.6,0.3l-0.6,0.2l-9.6-16.7l0.5-0.4l0.5-0.4l0.6-0.4l0.6-0.3
				l0.6-0.3l7.1-2.8l-2.2-6.6l-1.4-6.8l-7.6,1.1l-0.7,0l-0.7,0l-0.7-0.1l-0.7-0.1L0-232v-19.2l0.7-0.1l0.7-0.1l0.7-0.1l0.7,0l0.7,0
				l7.6,1.1l1.4-6.8l2.2-6.6l-7.1-2.8l-0.6-0.3l-0.6-0.3l-0.6-0.4L5.2-268l-0.5-0.4l9.6-16.7l0.6,0.2l0.6,0.3l0.6,0.3l0.6,0.3
				l0.6,0.4l6,4.8l4.6-5.2l5.2-4.6l-4.8-6l-0.4-0.6l-0.3-0.6l-0.3-0.6l-0.3-0.6l-0.2-0.6l16.7-9.6l0.4,0.5l0.4,0.5l0.4,0.6l0.3,0.6
				l0.3,0.6l2.8,7.1l6.6-2.2l6.8-1.4l-1.1-7.6l0-0.7l0-0.7l0.1-0.7l0.1-0.7l0.1-0.7H80l0.1,0.7l0.1,0.7l0.1,0.7l0,0.7l0,0.7
				l-1.1,7.6l6.8,1.4l6.6,2.2l2.8-7.1l0.3-0.6l0.3-0.6l0.4-0.6l0.4-0.5l0.4-0.5l16.7,9.6l-0.2,0.6l-0.3,0.6l-0.3,0.6l-0.3,0.6
				l-0.4,0.6l-4.8,6l5.2,4.6l4.6,5.2l6-4.8l0.6-0.4l0.6-0.3l0.6-0.3l0.6-0.3l0.6-0.2l9.6,16.7l-0.5,0.4l-0.5,0.4l-0.6,0.4l-0.6,0.3
				l-0.6,0.3l-7.1,2.8l2.2,6.6l1.4,6.8l7.6-1.1l0.7,0l0.7,0l0.7,0.1l0.7,0.1L140.7-251.2z M106.8-241.6c0-20.1-16.3-36.5-36.5-36.5
				c-20.1,0-36.5,16.3-36.5,36.5s16.3,36.5,36.5,36.5C90.5-205.1,106.8-221.4,106.8-241.6z"/>
			<polygon id="XMLID_382_" class="st1" points="27.9,-284 27.9,-284 27.9,-284 			"/>
			<polygon id="XMLID_381_" class="st1" points="112.8,-284 112.8,-284 112.8,-284 			"/>
			<polygon id="XMLID_380_" class="st1" points="128.3,-257.1 128.3,-257.1 128.3,-257.1 			"/>
			<polygon id="XMLID_379_" class="st1" points="85.9,-299.6 85.9,-299.6 85.9,-299.6 			"/>
			<polygon id="XMLID_378_" class="st1" points="54.8,-299.6 54.8,-299.6 54.8,-299.6 			"/>
		</g>
	</g>
</pattern>
<g id="XMLID_82_">
	<g id="XMLID_95_">
		<path id="XMLID_131_" class="st2" d="M688.1,143.1c3.2,0,3.2-5,0-5C684.9,138.1,684.8,143.1,688.1,143.1L688.1,143.1z"/>
	</g>
</g>
<rect id="XMLID_83_" x="0" class="st2" width="512" height="512"/>
</svg>
